<?xml version="1.0" encoding="UTF-8" standalone="no"?>
<svg
   xmlns:dc="http://purl.org/dc/elements/1.1/"
   xmlns:cc="http://creativecommons.org/ns#"
   xmlns:rdf="http://www.w3.org/1999/02/22-rdf-syntax-ns#"
   xmlns:svg="http://www.w3.org/2000/svg"
   xmlns="http://www.w3.org/2000/svg"
   version="1.1"
   id="svg8708"
   viewBox="0 0 252.53413 39.548335"
   height="11.161419mm"
   width="71.270744mm">
  <defs
     id="defs8710" />
  <metadata
     id="metadata8713">
    <rdf:RDF>
      <cc:Work
         rdf:about="">
        <dc:format>image/svg+xml</dc:format>
        <dc:type
           rdf:resource="http://purl.org/dc/dcmitype/StillImage" />
        <dc:title></dc:title>
      </cc:Work>
    </rdf:RDF>
  </metadata>
  <g
     transform="translate(-279.29391,-534.26575)"
     id="layer1">
    <rect
       ry="0"
       rx="0"
       y="534.26575"
       x="279.29391"
       height="39.548336"
       width="252.53413"
       id="rect7531"
       style="color:#000000;clip-rule:nonzero;display:inline;overflow:visible;visibility:visible;opacity:1;isolation:auto;mix-blend-mode:normal;color-interpolation:sRGB;color-interpolation-filters:linearRGB;solid-color:#000000;solid-opacity:1;fill:#03ad36;fill-opacity:1;fill-rule:nonzero;stroke:none;stroke-width:1.03683221;stroke-linecap:butt;stroke-linejoin:miter;stroke-miterlimit:4;stroke-dasharray:none;stroke-dashoffset:0;stroke-opacity:1;marker:none;color-rendering:auto;image-rendering:auto;shape-rendering:auto;text-rendering:auto;enable-background:accumulate" />
    <rect
       style="color:#000000;clip-rule:nonzero;display:inline;overflow:visible;visibility:visible;opacity:1;isolation:auto;mix-blend-mode:normal;color-interpolation:sRGB;color-interpolation-filters:linearRGB;solid-color:#000000;solid-opacity:1;fill:#03ad36;fill-opacity:1;fill-rule:nonzero;stroke:none;stroke-width:1.03683221;stroke-linecap:butt;stroke-linejoin:miter;stroke-miterlimit:4;stroke-dasharray:none;stroke-dashoffset:0;stroke-opacity:1;marker:none;color-rendering:auto;image-rendering:auto;shape-rendering:auto;text-rendering:auto;enable-background:accumulate"
       id="rect7541"
       width="252.53413"
       height="39.548336"
       x="279.29391"
       y="534.26575"
       rx="0"
       ry="0" />
    <g
       transform="translate(-522.57684,432.25947)"
       id="g8683">
      <text
         xml:space="preserve"
         style="font-style:normal;font-weight:normal;font-size:25.76909065px;line-height:100%;font-family:sans-serif;text-align:center;letter-spacing:0px;word-spacing:0px;text-anchor:middle;fill:#ffffff;fill-opacity:1;stroke:none;stroke-width:1px;stroke-linecap:butt;stroke-linejoin:miter;stroke-opacity:1"
         x="928.11572"
         y="127.30147"
         id="text7533"><tspan
           x="928.11572"
           y="127.30147"
           style="font-style:normal;font-variant:normal;font-weight:bold;font-stretch:normal;font-size:15.08181477px;line-height:100%;font-family:Roboto;-inkscape-font-specification:'Roboto Bold';text-align:center;text-anchor:middle;fill:#ffffff"
           id="tspan7535">BICICLETA          RECUPERADA!</tspan></text>
      <path
         id="path7537"
         d="m 914.21699,108.89888 c 6.36675,0 11.54583,5.17909 11.54583,11.54583 0,6.36675 -5.17908,11.54583 -11.54583,11.54583 -6.36675,0 -11.54582,-5.17908 -11.54582,-11.54583 0,-6.36674 5.17907,-11.54583 11.54582,-11.54583 m 0,-1.9243 c -7.43979,0 -13.47013,6.03035 -13.47013,13.47013 0,7.43979 6.03034,13.47014 13.47013,13.47014 7.43979,0 13.47014,-6.03035 13.47014,-13.47014 0,-7.43978 -6.03035,-13.47013 -13.47014,-13.47013 l 0,0 z m -3.8486,6.73507 c -1.06367,0 -1.92432,1.29289 -1.92432,2.88645 0,1.59543 0.86071,2.88646 1.92432,2.88646 1.06359,0 1.9243,-1.29103 1.9243,-2.88646 0,-1.59356 -0.86065,-2.88645 -1.9243,-2.88645 z m 7.69721,0 c -1.06365,0 -1.9243,1.29289 -1.9243,2.88645 0,1.59543 0.86071,2.88646 1.9243,2.88646 1.0636,0 1.92431,-1.29103 1.92431,-2.88646 0,-1.59356 -0.86065,-2.88645 -1.92431,-2.88645 z m 4.77318,8.92811 c 0.14848,-0.50928 -0.14468,-1.04297 -0.65582,-1.19331 -0.50928,-0.1522 -1.04298,0.14661 -1.19331,0.65397 -0.87195,2.99169 -3.65691,5.08136 -6.77266,5.08136 -3.11575,0 -5.9007,-2.08967 -6.77362,-5.08136 -0.14846,-0.50742 -0.67651,-0.80617 -1.1933,-0.65397 -0.51018,0.15034 -0.80244,0.68403 -0.65397,1.19331 1.11063,3.80723 4.6558,6.46633 8.62089,6.46633 3.9651,0 7.50931,-2.6591 8.62179,-6.46633 z"
         style="fill:#ffffff" />
      <text
         id="text7543"
         y="127.30147"
         x="928.11572"
         style="font-style:normal;font-weight:normal;font-size:25.76909065px;line-height:100%;font-family:sans-serif;text-align:center;letter-spacing:0px;word-spacing:0px;text-anchor:middle;fill:#ffffff;fill-opacity:1;stroke:none;stroke-width:1px;stroke-linecap:butt;stroke-linejoin:miter;stroke-opacity:1"
         xml:space="preserve"><tspan
           id="tspan7545"
           style="font-style:normal;font-variant:normal;font-weight:bold;font-stretch:normal;font-size:15.08181477px;line-height:100%;font-family:Roboto;-inkscape-font-specification:'Roboto Bold';text-align:center;text-anchor:middle;fill:#ffffff"
           y="127.30147"
           x="928.11572">BICICLETA          RECUPERADA!</tspan></text>
      <path
         style="fill:#ffffff"
         d="m 914.21699,108.89888 c 6.36675,0 11.54583,5.17909 11.54583,11.54583 0,6.36675 -5.17908,11.54583 -11.54583,11.54583 -6.36675,0 -11.54582,-5.17908 -11.54582,-11.54583 0,-6.36674 5.17907,-11.54583 11.54582,-11.54583 m 0,-1.9243 c -7.43979,0 -13.47013,6.03035 -13.47013,13.47013 0,7.43979 6.03034,13.47014 13.47013,13.47014 7.43979,0 13.47014,-6.03035 13.47014,-13.47014 0,-7.43978 -6.03035,-13.47013 -13.47014,-13.47013 l 0,0 z m -3.8486,6.73507 c -1.06367,0 -1.92432,1.29289 -1.92432,2.88645 0,1.59543 0.86071,2.88646 1.92432,2.88646 1.06359,0 1.9243,-1.29103 1.9243,-2.88646 0,-1.59356 -0.86065,-2.88645 -1.9243,-2.88645 z m 7.69721,0 c -1.06365,0 -1.9243,1.29289 -1.9243,2.88645 0,1.59543 0.86071,2.88646 1.9243,2.88646 1.0636,0 1.92431,-1.29103 1.92431,-2.88646 0,-1.59356 -0.86065,-2.88645 -1.92431,-2.88645 z m 4.77318,8.92811 c 0.14848,-0.50928 -0.14468,-1.04297 -0.65582,-1.19331 -0.50928,-0.1522 -1.04298,0.14661 -1.19331,0.65397 -0.87195,2.99169 -3.65691,5.08136 -6.77266,5.08136 -3.11575,0 -5.9007,-2.08967 -6.77362,-5.08136 -0.14846,-0.50742 -0.67651,-0.80617 -1.1933,-0.65397 -0.51018,0.15034 -0.80244,0.68403 -0.65397,1.19331 1.11063,3.80723 4.6558,6.46633 8.62089,6.46633 3.9651,0 7.50931,-2.6591 8.62179,-6.46633 z"
         id="path7547" />
    </g>
  </g>
</svg>
